<svg width="23" height="12" viewBox="0 0 23 12" fill="none" xmlns="http://www.w3.org/2000/svg">
<path d="M1.43945 1.93945H21.5522C21.9424 1.93945 22.2578 1.63232 22.2578 1.25049C22.2578 0.860352 21.9424 0.553223 21.5522 0.553223H1.43945C1.04932 0.553223 0.742188 0.860352 0.742188 1.25049C0.742188 1.63232 1.04932 1.93945 1.43945 1.93945ZM1.43945 6.729H21.5522C21.9424 6.729 22.2578 6.42188 22.2578 6.03174C22.2578 5.6416 21.9424 5.33447 21.5522 5.33447H1.43945C1.04932 5.33447 0.742188 5.6416 0.742188 6.03174C0.742188 6.42188 1.04932 6.729 1.43945 6.729ZM1.43945 11.5103H21.5522C21.9424 11.5103 22.2578 11.2031 22.2578 10.8047C22.2578 10.4229 21.9424 10.1157 21.5522 10.1157H1.43945C1.04932 10.1157 0.742188 10.4229 0.742188 10.8047C0.742188 11.2031 1.04932 11.5103 1.43945 11.5103Z" fill="#3C3C43" fill-opacity="0.3"/>
</svg>
